<?xml version="1.0" encoding="utf-8"?>
<!-- Generator: Adobe Illustrator 16.0.0, SVG Export Plug-In . SVG Version: 6.00 Build 0)  -->
<!DOCTYPE svg PUBLIC "-//W3C//DTD SVG 1.1//EN" "http://www.w3.org/Graphics/SVG/1.1/DTD/svg11.dtd">
<svg version="1.1" id="Layer_1" xmlns="http://www.w3.org/2000/svg" xmlns:xlink="http://www.w3.org/1999/xlink" x="0px" y="0px"
	 width="585px" height="208px" viewBox="11.5 138.5 585 208" enable-background="new 11.5 138.5 585 208" xml:space="preserve">
<path fill="#43525A" d="M258.086,246.933c0.247,0.559,0.494,1.394,0.741,1.952c0.247,0.558,0.495,1.396,0.741,1.954
	c0.248-0.838,0.494-1.396,0.741-2.232c0.248-0.837,0.495-1.395,0.742-1.952l11.367-23.715c0.247-0.279,0.247-0.556,0.495-0.835
	c0.247-0.279,0.247-0.279,0.494-0.279c0.248,0,0.495,0,0.495-0.279c0.247,0,0.494,0,0.741,0h5.436v42.961h-6.177V236.61
	c0-0.558,0-1.116,0-1.675c0-0.557,0-1.116,0-1.951l-11.615,24.27c-0.247,0.56-0.494,1.117-0.988,1.396
	c-0.494,0.279-0.988,0.558-1.482,0.558h-0.989c-0.494,0-0.988-0.278-1.483-0.558c-0.494-0.279-0.741-0.836-0.988-1.396
	l-11.614-24.549c0,0.559,0,1.394,0.247,1.953c0,0.558,0,1.116,0,1.674v27.897h-6.178v-42.962h5.437c0.247,0,0.495,0,0.742,0
	c0.247,0,0.493,0,0.741,0.278c0.247,0,0.247,0.279,0.494,0.279c0.247,0.279,0.247,0.279,0.494,0.835L258.086,246.933z"/>
<path fill="#43525A" d="M332.466,243.027c0-2.231-0.247-4.464-0.741-6.417c-0.494-1.952-1.235-3.347-2.471-4.742
	c-0.988-1.396-2.225-2.232-3.708-3.069c-1.482-0.558-3.212-1.116-4.941-1.116c-1.977,0-3.459,0.279-4.941,1.116
	c-1.483,0.558-2.72,1.673-3.707,3.069c-0.989,1.395-1.73,2.79-2.471,4.742c-0.495,1.953-0.742,3.906-0.742,6.417
	c0,2.231,0.247,4.465,0.742,6.416c0.494,1.954,1.481,3.348,2.471,4.743c0.987,1.395,2.224,2.231,3.707,3.068
	c1.482,0.56,3.212,1.117,4.941,1.117c1.977,0,3.459-0.279,4.941-1.117c1.483-0.556,2.72-1.673,3.708-3.068
	c0.988-1.395,1.729-2.79,2.471-4.743C332.219,247.77,332.466,245.539,332.466,243.027 M339.633,243.027
	c0,3.068-0.494,6.138-1.483,8.649c-0.987,2.789-2.223,5.022-3.955,6.976c-1.729,1.951-3.705,3.347-6.176,4.461
	c-2.472,1.117-4.943,1.674-7.908,1.674s-5.437-0.558-7.907-1.674c-2.472-1.115-4.448-2.511-6.177-4.461
	c-1.73-1.954-2.967-4.187-3.954-6.976c-0.99-2.791-1.483-5.581-1.483-8.649s0.493-6.137,1.483-8.648
	c0.988-2.791,2.224-5.022,3.954-6.976c1.729-1.951,3.706-3.626,6.177-4.464c2.471-1.114,4.942-1.672,7.907-1.672
	s5.437,0.558,7.908,1.672c2.471,1.117,4.447,2.513,6.176,4.464c1.732,1.954,2.968,4.185,3.955,6.976
	C339.139,237.168,339.633,239.959,339.633,243.027z"/>
<path fill="#43525A" d="M387.079,243.027c0-2.231-0.247-4.464-0.742-6.417c-0.496-1.952-1.483-3.347-2.473-4.742
	c-0.987-1.396-2.224-2.232-3.706-3.069c-1.481-0.558-3.211-1.116-4.943-1.116h-7.414v30.13h7.414c1.979,0,3.462-0.279,4.943-1.116
	c1.482-0.56,2.719-1.674,3.706-3.07c0.989-1.394,1.729-2.789,2.473-4.743C386.832,247.492,387.079,245.539,387.079,243.027
	 M394.243,243.027c0,3.068-0.494,6.138-1.482,8.649c-0.988,2.51-2.223,5.022-3.952,6.695c-1.729,1.952-3.709,3.347-6.179,4.464
	c-2.472,1.116-4.944,1.672-7.908,1.672h-14.578v-42.961h14.578c2.964,0,5.437,0.558,7.908,1.674c2.47,1.116,4.449,2.512,6.179,4.464
	c1.729,1.953,2.964,4.185,3.952,6.695C393.749,237.168,394.243,239.959,394.243,243.027z"/>
<path fill="#43525A" d="M430.567,258.092c1.484,0,2.72-0.278,3.708-0.838c0.988-0.556,1.977-1.116,2.718-2.23
	c0.741-0.838,1.235-1.954,1.729-3.348c0.498-1.395,0.498-2.791,0.498-4.464v-25.666h6.918v25.666c0,2.511-0.248,5.022-0.989,6.975
	c-0.741,2.231-1.73,3.906-3.212,5.58c-1.484,1.674-2.965,2.79-4.943,3.626c-1.976,0.838-4.201,1.396-6.673,1.396
	c-2.471,0-4.693-0.558-6.67-1.396c-1.977-0.836-3.707-2.231-4.941-3.626c-1.484-1.674-2.471-3.348-3.215-5.58
	c-0.74-2.231-0.987-4.464-0.987-6.975v-25.666h7.167v25.666c0,1.674,0.246,3.069,0.493,4.464c0.495,1.395,0.989,2.51,1.729,3.348
	c0.742,0.835,1.73,1.674,2.719,2.23C427.85,257.813,429.088,258.092,430.567,258.092"/>
<polygon fill="#43525A" points="475.79,258.092 491.11,258.092 491.11,264.507 468.623,264.507 468.623,221.546 475.79,221.546 "/>
<path fill="#43525A" d="M538.31,243.027c0-2.231-0.247-4.464-0.742-6.417c-0.494-1.952-1.234-3.347-2.473-4.742
	c-0.985-1.396-2.223-2.232-3.705-3.069c-1.482-0.558-3.212-1.116-4.941-1.116c-1.977,0-3.461,0.279-4.942,1.116
	c-1.483,0.558-2.72,1.673-3.707,3.069c-0.988,1.395-1.729,2.79-2.471,4.742c-0.494,1.953-0.741,3.906-0.741,6.417
	c0,2.231,0.247,4.465,0.741,6.416c0.492,1.954,1.482,3.348,2.471,4.743c0.987,1.395,2.224,2.231,3.707,3.068
	c1.481,0.56,3.212,1.117,4.942,1.117c1.977,0,3.459-0.279,4.941-1.117c1.482-0.556,2.72-1.673,3.705-3.068
	c0.992-1.395,1.732-2.79,2.473-4.743C538.063,247.77,538.31,245.539,538.31,243.027 M545.475,243.027
	c0,3.068-0.495,6.138-1.482,8.649c-0.988,2.789-2.225,5.022-3.952,6.976c-1.73,1.951-3.707,3.347-6.18,4.461
	c-2.471,1.117-4.941,1.674-7.908,1.674c-2.965,0-5.436-0.558-7.906-1.674c-2.47-1.115-4.448-2.511-6.179-4.461
	c-1.729-1.954-2.964-4.187-3.953-6.976c-0.987-2.791-1.481-5.581-1.481-8.649s0.494-6.137,1.481-8.648
	c0.989-2.791,2.224-5.022,3.953-6.976c1.73-1.951,3.709-3.626,6.179-4.464c2.471-1.114,4.941-1.672,7.906-1.672
	c2.967,0,5.438,0.558,7.908,1.672c2.473,1.117,4.449,2.513,6.18,4.464c1.728,1.954,2.964,4.185,3.952,6.976
	C545.227,237.168,545.475,239.959,545.475,243.027z"/>
<path fill="#43525A" d="M586.744,229.636c-0.249,0.557-0.494,0.836-0.744,0.836c-0.247,0.279-0.494,0.279-0.987,0.279
	c-0.248,0-0.741-0.279-1.233-0.559c-0.497-0.278-0.991-0.557-1.485-1.115c-0.494-0.279-1.234-0.837-1.976-1.116
	c-0.742-0.279-1.729-0.56-2.719-0.56s-1.73,0-2.472,0.28c-0.741,0.279-1.233,0.558-1.73,1.116c-0.494,0.558-0.987,1.116-1.234,1.673
	c-0.247,0.558-0.247,1.396-0.247,2.232c0,1.115,0.247,1.953,0.741,2.511c0.494,0.558,1.237,1.117,1.977,1.674
	c0.74,0.557,1.731,0.836,2.719,1.395c0.987,0.278,2.224,0.836,3.213,1.114c0.987,0.28,2.223,0.838,3.214,1.396
	c0.985,0.557,1.974,1.395,2.716,2.231c0.743,0.838,1.481,1.952,1.979,3.069c0.492,1.116,0.74,2.79,0.74,4.463
	c0,1.952-0.248,3.627-0.989,5.58c-0.495,1.675-1.48,3.069-2.472,4.464c-1.234,1.396-2.471,2.233-4.2,3.068
	c-1.729,0.837-3.46,1.117-5.684,1.117c-1.235,0-2.472,0-3.459-0.279c-1.235-0.278-2.224-0.557-3.46-1.116
	c-0.987-0.557-1.977-1.115-2.966-1.674c-0.989-0.556-1.729-1.395-2.471-2.231l1.977-3.906c0.248-0.278,0.494-0.557,0.743-0.557
	c0.247-0.279,0.494-0.279,0.989-0.279c0.493,0,0.987,0.279,1.481,0.558c0.495,0.278,1.235,0.835,1.729,1.395
	c0.741,0.558,1.482,0.836,2.47,1.394c0.991,0.279,1.977,0.56,3.462,0.56c1.975,0,3.459-0.56,4.694-1.676
	c0.988-1.116,1.729-2.51,1.729-4.741c0-1.116-0.246-1.953-0.74-2.791c-0.495-0.836-1.236-1.394-1.977-1.673
	c-0.742-0.558-1.731-0.836-2.719-1.115c-0.987-0.279-2.225-0.837-3.213-1.116c-0.988-0.28-2.224-0.837-3.213-1.395
	c-0.987-0.558-1.977-1.395-2.717-2.232c-0.741-0.837-1.484-1.952-1.979-3.348c-0.493-1.395-0.741-3.067-0.741-5.021
	c0-1.674,0.248-3.07,0.741-4.464c0.494-1.395,1.484-2.791,2.473-3.905c0.988-1.117,2.471-1.954,3.953-2.79
	c1.482-0.558,3.212-1.116,5.19-1.116c2.224,0,4.2,0.278,6.176,1.116c1.977,0.836,3.461,1.954,4.942,3.348L586.744,229.636z"/>
<polygon fill="#43525A" points="114.734,275.528 15.781,209.403 15.781,275.528 29.518,284.608 29.518,238.508 114.734,295.319 
	200.184,238.508 200.184,284.608 213.92,275.528 213.92,209.403 "/>
<polygon fill="#43525A" points="114.734,143.512 26.724,202.185 40.461,211.266 114.734,161.905 189.24,211.266 202.978,202.185 "/>
<path fill="#43525A" d="M200.184,281.116l2.793,1.863l-2.793,1.863V281.116z M29.518,284.841l-2.794-1.863l2.794-1.863V284.841z
	 M114.734,341.652l-71.479-47.731v-18.394l71.479,47.964l71.48-47.731v18.394L114.734,341.652z"/>
</svg>
